    <svg xmlns="http://www.w3.org/2000/svg" width="1300" height="759" viewBox="0 0 1300 759" fill="#020A50">
      <path d="M1269.88 320.218H1300V758.431H1269.88V320.218Z" fill="#020A50"></path>
      <path d="M556 39.37L577.299 18L1293.31 736.395L1269.88 758.428L556 39.37Z" fill="#020A50"></path>
      <path d="M1027.63 470.569C1227.03 668.822 1272.37 452.939 1270.11 320.217L1284.41 341.372V555.189L1278.39 739.541L1071.31 542.345C973.661 435.814 828.226 272.315 1027.63 470.569Z" fill="#020A50"></path>
      <path d="M30.1214 320.218H0V758.431H30.1214V320.218Z" fill="#020A50"></path>
      <path d="M744 39.37L722.701 18L6.68793 736.395L30.1238 758.428L744 39.37Z" fill="#020A50"></path>
      <path d="M272.371 470.569C72.9671 668.822 27.6344 452.939 29.8935 320.217L15.5859 341.372V555.189L21.6101 739.541L228.695 542.345C326.339 435.814 471.774 272.315 272.371 470.569Z" fill="#020A50"></path>
      <path d="M0.000214577 0H30.0002V287H0.000214577V0Z" fill="#020A50"></path>
      <path d="M1270 0H1300V287H1270V0Z" fill="#020A50"></path>
    </svg>