<svg class="modile_svg" xmlns="http://www.w3.org/2000/svg" width="311" height="528" viewBox="0 0 311 528" fill="#020A50">
  <g filter="url(#filter0_f_709_237)">
    <path d="M16.1368 15.9999L16.1368 25.6096L156.288 25.6096V15.9999L16.1368 15.9999Z" fill="#020A50"></path>
    <path d="M22.9714 18.8811C19.1968 18.8622 16.1368 25.6762 16.1368 25.6762L245.897 254.108L252.944 246.631L29.7374 25.6079C29.7374 25.6079 26.7081 18.8999 22.9714 18.8811Z" fill="#020A50"></path>
    <path d="M108.202 102.969C44.7953 39.3532 113.84 24.8905 156.288 25.6113L149.522 21.0466L81.1379 21.0466L22.1778 22.9686L85.2458 89.0352C119.317 120.186 171.608 166.586 108.202 102.969Z" fill="#020A50"></path>
    <path d="M295 15.9999V25.6096L154.849 25.6096V15.9999L295 15.9999Z" fill="#020A50"></path>
    <path d="M288.166 18.8811C291.94 18.8622 295 25.6761 295 25.6761L65.2399 254.108L58.1932 246.631L281.4 25.6079C281.4 25.6079 284.429 18.8999 288.166 18.8811Z" fill="#020A50"></path>
    <path d="M202.935 102.969C266.342 39.3532 197.297 24.8905 154.849 25.6113L161.615 21.0466L229.999 21.0466L288.959 22.9686L225.891 89.0352C191.82 120.186 139.529 166.586 202.935 102.969Z" fill="#020A50"></path>
    <path d="M295 511.108V501.498H154.849V511.108H295Z" fill="#020A50"></path>
    <path d="M288.165 508.227C291.94 508.245 295 501.432 295 501.432L65.2398 273L58.1931 280.477L281.4 501.5C281.4 501.5 284.429 508.208 288.165 508.227Z" fill="#020A50"></path>
    <path d="M202.935 424.138C266.342 487.754 197.297 502.217 154.849 501.496L161.615 506.061H229.999L288.959 504.139L225.891 438.072C191.82 406.921 139.529 360.522 202.935 424.138Z" fill="#020A50"></path>
    <path d="M16.1367 511.108L16.1367 501.498H156.288V511.108H16.1367Z" fill="#020A50"></path>
    <path d="M22.9713 508.227C19.1967 508.245 16.1367 501.432 16.1367 501.432L245.897 273L252.944 280.477L29.7373 501.5C29.7373 501.5 26.708 508.208 22.9713 508.227Z" fill="#020A50"></path>
    <path d="M108.201 424.138C44.7952 487.754 113.84 502.217 156.288 501.496L149.522 506.061H81.1378L22.1777 504.139L85.2457 438.072C119.317 406.921 171.608 360.522 108.201 424.138Z" fill="#020A50"></path>
  </g>
  <defs>
    <filter id="filter0_f_709_237" x="0.136719" y="-0.00012207" width="310.863" height="527.108" filterUnits="userSpaceOnUse" color-interpolation-filters="sRGB">
      <feFlood flood-opacity="0" result="BackgroundImageFix"></feFlood>
      <feBlend mode="normal" in="SourceGraphic" in2="BackgroundImageFix" result="shape"></feBlend>
      <feGaussianBlur stdDeviation="8" result="effect1_foregroundBlur_709_237"></feGaussianBlur>
    </filter>
  </defs>
</svg>