    <svg class="comp_svg" xmlns="http://www.w3.org/2000/svg" viewBox="0 0 1300 493" fill="#020A50">
      <path d="M0 0H16.9506V246.602H0V0Z" fill="#020A50"></path>
      <path d="M5.08213 12.0258C5.04873 5.38425 17.068 0 17.068 0L420 404.273L406.812 416.672L16.9476 23.9307C16.9476 23.9307 5.11526 18.6006 5.08213 12.0258Z" fill="#020A50"></path>
      <path d="M153.406 161.992C41.193 50.4258 15.6823 171.913 16.9536 246.602L8.90202 234.697V114.372L12.2921 10.6294L128.828 121.6C183.776 181.55 265.619 273.558 153.406 161.992Z" fill="#020A50"></path>
      <path d="M0 490.672H16.9506V244.07H0V490.672Z" fill="#020A50"></path>
      <path d="M5.08213 478.646C5.04873 485.288 17.068 490.672 17.068 490.672L420 86.399L406.812 74L16.9476 466.741C16.9476 466.741 5.11526 472.071 5.08213 478.646Z" fill="#020A50"></path>
      <path d="M153.406 328.68C41.193 440.246 15.6823 318.759 16.9536 244.07L8.90202 255.975V376.3L12.2921 480.043L128.828 369.072C183.776 309.122 265.619 217.114 153.406 328.68Z" fill="#020A50"></path>
      <path d="M1300 2H1283.05V248.602H1300V2Z" fill="#020A50"></path>
      <path d="M1294.92 14.0258C1294.95 7.38425 1282.93 2 1282.93 2L880 406.273L893.188 418.672L1283.05 25.9307C1283.05 25.9307 1294.89 20.6006 1294.92 14.0258Z" fill="#020A50"></path>
      <path d="M1146.59 163.992C1258.81 52.4258 1284.32 173.913 1283.05 248.602L1291.1 236.697V116.372L1287.71 12.6294L1171.17 123.6C1116.22 183.55 1034.38 275.558 1146.59 163.992Z" fill="#020A50"></path>
      <path d="M1300 492.672H1283.05V246.07H1300V492.672Z" fill="#020A50"></path>
      <path d="M1294.92 480.646C1294.95 487.288 1282.93 492.672 1282.93 492.672L880 88.399L893.188 76L1283.05 468.741C1283.05 468.741 1294.89 474.071 1294.92 480.646Z" fill="#020A50"></path>
      <path d="M1146.59 330.68C1258.81 442.246 1284.32 320.759 1283.05 246.07L1291.1 257.975V378.3L1287.71 482.043L1171.17 371.072C1116.22 311.122 1034.38 219.114 1146.59 330.68Z" fill="#020A50"></path>
    </svg>