      <svg xmlns="http://www.w3.org/2000/svg" width="16" height="43" viewBox="0 0 16 43" fill="none">
        <path d="M9 1C9 0.447715 8.55228 2.41412e-08 8 0C7.44772 -2.41412e-08 7 0.447715 7 1L9 1ZM7.29289 42.7071C7.68342 43.0976 8.31658 43.0976 8.7071 42.7071L15.0711 36.3431C15.4616 35.9526 15.4616 35.3195 15.0711 34.9289C14.6805 34.5384 14.0474 34.5384 13.6569 34.9289L8 40.5858L2.34314 34.9289C1.95262 34.5384 1.31946 34.5384 0.928931 34.9289C0.538406 35.3195 0.538406 35.9526 0.928931 36.3431L7.29289 42.7071ZM7 1L7 42L9 42L9 1L7 1Z" fill="white"></path>
      </svg>