<svg
    xmlns="http://www.w3.org/2000/svg"
    width="22"
    height="22"
    viewBox="0 0 22 22"
    fill="none"
>
    <path
    fill-rule="evenodd"
    clip-rule="evenodd"
    d="M11 0C17.0753 0 22 5.04892 22 11.2782C22 16.2601 18.8518 20.4863 14.4837 21.979C13.926 22.0901 13.728 21.7379 13.728 21.4376C13.728 21.0658 13.7412 19.8515 13.7412 18.3423C13.7412 17.2907 13.3892 16.6043 12.9943 16.2545C15.444 15.9751 18.018 15.0213 18.018 10.6895C18.018 9.45754 17.5912 8.45219 16.885 7.66239C16.9994 7.37749 17.3767 6.23034 16.7772 4.67714C16.7772 4.67714 15.8554 4.37494 13.7555 5.83354C12.8766 5.58384 11.935 5.4582 11 5.4538C10.065 5.4582 9.12449 5.58384 8.24669 5.83354C6.1446 4.37494 5.2206 4.67714 5.2206 4.67714C4.6233 6.23034 5.0006 7.37749 5.1139 7.66239C4.411 8.45219 3.9809 9.45754 3.9809 10.6895C3.9809 15.0103 6.5494 15.9788 8.99249 16.2637C8.67789 16.5453 8.39299 17.042 8.29399 17.7713C7.66699 18.0595 6.07419 18.5583 5.09299 16.8346C5.09299 16.8346 4.5111 15.751 3.4067 15.6718C3.4067 15.6718 2.3342 15.6575 3.3319 16.3571C3.3319 16.3571 4.0524 16.7036 4.55289 18.0071C4.55289 18.0071 5.1986 20.0201 8.25879 19.3381C8.26429 20.2808 8.27419 21.1692 8.27419 21.4376C8.27419 21.7357 8.07179 22.0846 7.52289 21.9801C3.15149 20.4896 0 16.2612 0 11.2782C0 5.04892 4.92579 0 11 0Z"
    fill="white"
    />
</svg>