            <svg
              xmlns="http://www.w3.org/2000/svg"
              width="90"
              height="69"
              viewBox="0 0 90 69"
              fill="none"
            >
              <g clip-path="url(#clip0_701_4)">
                <path
                  d="M4.78516 37.2843H6.82136V54.6495H4.78516V37.2843Z"
                  fill="white"
                />
                <path
                  fill-rule="evenodd"
                  clip-rule="evenodd"
                  d="M83.1787 6.63966H69.9434V19.919H83.1787V6.63966ZM67.9072 4.59669V21.962H85.2149V4.59669H67.9072Z"
                  fill="white"
                />
                <path
                  d="M4.78516 4.59669H6.82136V7.47138V34.2198H4.78516V4.59669Z"
                  fill="white"
                />
                <path
                  d="M53.6543 7.66115L55.6905 9.70412V54.6495H53.6543V7.66115Z"
                  fill="white"
                />
                <path
                  d="M34.3096 4.59669H36.3458V51.5851L34.3096 49.5421V4.59669Z"
                  fill="white"
                />
                <path
                  d="M83.1787 25.0264H85.2149V54.6495H83.1787V25.0264Z"
                  fill="white"
                />
                <path
                  d="M5.39552 6.0413C5.3915 5.24347 6.83532 4.59669 6.83532 4.59669L55.2377 53.1601L53.6534 54.6495L6.82086 7.47138C6.82086 7.47138 5.3995 6.83109 5.39552 6.0413Z"
                  fill="white"
                />
                <path
                  d="M34.9209 6.0413L36.3607 4.59669L84.7631 53.1601L83.1788 54.6495L34.9209 6.0413Z"
                  fill="white"
                />
                <path
                  d="M23.2131 24.056C9.73345 10.6541 6.66897 25.2478 6.82169 34.2198L5.85449 32.7897V18.3357L6.26173 5.87355L20.2606 19.2039C26.8612 26.4054 36.6927 37.4579 23.2131 24.056Z"
                  fill="white"
                />
                <path
                  d="M66.8024 35.1902C80.282 48.5921 83.3465 33.9984 83.1938 25.0264L84.161 26.4565V40.9105L83.7537 53.3727L69.7549 40.0423C63.1541 32.8408 53.3227 21.7883 66.8024 35.1902Z"
                  fill="white"
                />
                <path
                  fill-rule="evenodd"
                  clip-rule="evenodd"
                  d="M87.9638 2.04297H2.0362V57.2032H87.9638V2.04297ZM0 0V59.2462H90V0H0Z"
                  fill="white"
                />
                <path
                  d="M5.31055 62.0962H6.73864V68.031H5.31055V62.0962ZM6.20627 63.2746V62.0962H7.36395C7.86534 62.0962 8.28503 62.1753 8.62304 62.3336C8.96668 62.4862 9.22582 62.7066 9.40046 62.9949C9.5751 63.2831 9.66241 63.6307 9.66241 64.0377C9.66241 64.4333 9.5751 64.7782 9.40046 65.0721C9.22582 65.3603 8.96668 65.5836 8.62304 65.7418C8.28503 65.8945 7.86534 65.9708 7.36395 65.9708H6.20627V64.7923H7.36395C7.65126 64.7923 7.87661 64.7273 8.03997 64.5973C8.20334 64.4672 8.28503 64.2807 8.28503 64.0377C8.28503 63.789 8.20334 63.5997 8.03997 63.4696C7.87661 63.3396 7.65126 63.2746 7.36395 63.2746H6.20627Z"
                  fill="white"
                />
                <path
                  d="M43.5305 65.3434H45.0093L46.8599 68.031H45.1868L43.5305 65.3434ZM42.0518 62.0962H43.4798V68.031H42.0518V62.0962ZM42.9475 63.3086V62.0962H44.2066C44.7136 62.0962 45.1361 62.1781 45.4741 62.342C45.8121 62.506 46.0685 62.7349 46.2431 63.0288C46.4178 63.317 46.505 63.6533 46.505 64.0377C46.505 64.4164 46.4178 64.7527 46.2431 65.0466C46.0685 65.3349 45.8121 65.5609 45.4741 65.7249C45.1361 65.8888 44.7136 65.9708 44.2066 65.9708H42.9475V64.8601H44.1052C44.2968 64.8601 44.4601 64.8318 44.5953 64.7753C44.7362 64.7131 44.8432 64.6256 44.9164 64.5125C44.9897 64.3938 45.0262 64.2525 45.0262 64.0886C45.0262 63.9246 44.9897 63.7862 44.9164 63.6731C44.8432 63.5544 44.7362 63.464 44.5953 63.4018C44.4601 63.3396 44.2968 63.3086 44.1052 63.3086H42.9475Z"
                  fill="white"
                />
                <path
                  d="M80.1747 65.0636C80.1747 65.4141 80.2423 65.7249 80.3775 65.9962C80.5183 66.2619 80.7127 66.471 80.9606 66.6236C81.2141 66.7762 81.5098 66.8525 81.8478 66.8525C82.1802 66.8525 82.4703 66.7762 82.7182 66.6236C82.9717 66.471 83.1661 66.2619 83.3013 65.9962C83.4421 65.7249 83.5125 65.4141 83.5125 65.0636C83.5125 64.7131 83.4449 64.4051 83.3097 64.1394C83.1745 63.8681 82.9829 63.6562 82.7351 63.5036C82.4872 63.351 82.1915 63.2747 81.8478 63.2747C81.5098 63.2747 81.2141 63.351 80.9606 63.5036C80.7127 63.6562 80.5183 63.8681 80.3775 64.1394C80.2423 64.4051 80.1747 64.7131 80.1747 65.0636ZM78.6621 65.0636C78.6621 64.6058 78.7409 64.1875 78.8987 63.8088C79.062 63.4301 79.2874 63.1022 79.5747 62.8253C79.862 62.5484 80.2001 62.3364 80.5888 62.1894C80.9775 62.0368 81.3971 61.9605 81.8478 61.9605C82.3042 61.9605 82.7238 62.0368 83.1069 62.1894C83.4956 62.3364 83.8336 62.5484 84.121 62.8253C84.4083 63.1022 84.6307 63.4301 84.7885 63.8088C84.9462 64.1875 85.0251 64.6058 85.0251 65.0636C85.0251 65.5214 84.9462 65.9425 84.7885 66.3269C84.6364 66.7112 84.4167 67.0447 84.1294 67.3273C83.8477 67.6099 83.5125 67.8304 83.1238 67.9886C82.7351 68.1412 82.3098 68.2175 81.8478 68.2175C81.3802 68.2175 80.9521 68.1412 80.5634 67.9886C80.1747 67.8304 79.8367 67.6099 79.5494 67.3273C79.2677 67.0447 79.048 66.7112 78.8903 66.3269C78.7382 65.9425 78.6621 65.5214 78.6621 65.0636Z"
                  fill="white"
                />
              </g>
              <defs>
                <clipPath id="clip0_701_4">
                  <rect width="90" height="68.2353" fill="white" />
                </clipPath>
              </defs>
            </svg>